<svg xmlns="http://www.w3.org/2000/svg" viewBox="0 0 1920 1080">
  <defs>
    <linearGradient id="g1" x1="0" y1="0" x2="0" y2="1">
      <stop offset="0%" stop-color="#ECEFF3" />
      <stop offset="100%" stop-color="#F8FAFC" />
    </linearGradient>
    <filter id="soft" x="-20%" y="-20%" width="140%" height="140%">
      <feGaussianBlur in="SourceGraphic" stdDeviation="2.5" result="blur"/>
      <feColorMatrix type="matrix" values="1 0 0 0 0  0 1 0 0 0  0 0 1 0 0  0 0 0 0.8 0"/>
      <feBlend in="SourceGraphic" in2="blur" mode="normal"/>
    </filter>
  </defs>
  <rect width="100%" height="100%" fill="none"/>
  <!-- Top drip band -->
  <path d="M0,0 H1920 V110 
           c-60,15 -120,25 -200,20 
           c-85,-6 -100,70 -140,110 
           c-35,35 -115,25 -155,10 
           c-35,-13 -55,-65 -95,-78 
           c-40,-13 -130,40 -175,28 
           c-60,-16 -65,-63 -120,-74 
           c-52,-9 -120,34 -175,34 
           c-60,0 -90,-45 -150,-53 
           c-80,-10 -170,44 -230,44 
           L0,151 Z" fill="url(#g1)" filter="url(#soft)" opacity="0.9"/>
  <!-- Drip streaks -->
  <path d="M260,150 v160 c0,22 -18,40 -40,40 s-40,-18 -40,-40 v-10" stroke="#EEF2F7" stroke-width="20" stroke-linecap="round" fill="none"/>
  <path d="M820,150 v230 c0,22 -18,40 -40,40 s-40,-18 -40,-40 v-15" stroke="#EDF1F6" stroke-width="16" stroke-linecap="round" fill="none"/>
  <path d="M1320,140 v180" stroke="#EEF2F7" stroke-width="14" stroke-linecap="round" fill="none"/>
  <path d="M1680,130 v220" stroke="#E9EEF3" stroke-width="18" stroke-linecap="round" fill="none"/>
</svg>